<svg width="282" height="48" viewBox="0 0 282 48" fill="none" xmlns="http://www.w3.org/2000/svg">
<path d="M226.561 16.6354C228.087 17.4698 229.275 18.6356 230.117 20.1325C230.96 21.6295 231.385 23.3303 231.391 25.2413L231.431 39.6313C231.431 40.6569 230.575 41.485 229.507 41.485C228.439 41.485 227.576 40.6632 227.576 39.6376L227.536 25.7382C227.53 23.6679 226.906 21.9735 225.672 20.6549C224.431 19.3426 222.839 18.6865 220.881 18.6929C219.408 18.6993 218.048 18.9987 216.794 19.5911C215.547 20.1899 214.545 20.9989 213.795 22.0181C213.045 23.0373 212.667 24.1266 212.674 25.2795L212.714 39.6695C212.714 40.6951 211.858 41.5232 210.789 41.5232C209.721 41.5232 208.859 40.7014 208.859 39.6759L208.799 17.8584C208.799 16.8328 209.655 16.0047 210.723 16.0047C211.791 16.0047 212.654 16.8265 212.654 17.8521L212.66 20.1007C213.443 18.7184 214.631 17.5845 216.223 16.7118C217.816 15.8327 219.534 15.3932 221.386 15.3868C223.31 15.3868 225.035 15.8009 226.561 16.6354Z" fill="white"/>
<path d="M229.514 43.6192C227.225 43.6255 225.36 41.8419 225.354 39.6443L225.314 25.7448C225.307 24.2032 224.889 23.0057 224.02 22.0884C223.204 21.2284 222.208 20.8271 220.888 20.8271C219.747 20.8271 218.732 21.0501 217.783 21.5023C216.861 21.9419 216.151 22.5152 215.607 23.2477C215.122 23.9038 214.89 24.5663 214.89 25.2734L214.936 39.6697C214.943 41.8674 213.085 43.6574 210.796 43.6638C208.507 43.6701 206.643 41.8865 206.636 39.6888L206.576 17.8714C206.57 15.6737 208.427 13.8837 210.716 13.8774C212.09 13.871 213.311 14.5144 214.074 15.5017C214.406 15.2724 214.757 15.0622 215.122 14.8584C217.046 13.8009 219.156 13.2595 221.386 13.2531C223.688 13.2467 225.798 13.7627 227.663 14.7756C229.547 15.8075 231.033 17.2662 232.075 19.1072C233.09 20.9099 233.614 22.9674 233.614 25.2224L233.654 39.6124C233.661 41.8164 231.803 43.6128 229.514 43.6192ZM211.028 20.2474L211.035 22.4451C211.274 21.8782 211.592 21.324 211.984 20.7889C212.05 20.6997 212.116 20.6105 212.183 20.5277L211.028 20.2474Z" fill="white"/>
<path d="M266.041 8.19037L266.128 38.9959C266.128 40.0215 265.272 40.8496 264.203 40.8496C263.135 40.8496 262.273 40.0279 262.273 39.0023L262.266 36.0657C261.244 37.7793 259.897 39.1106 258.238 40.0534C256.58 40.9961 254.702 41.4675 252.612 41.4739C250.316 41.4803 248.233 40.9197 246.362 39.7858C244.491 38.6583 243.018 37.0722 241.949 35.0338C240.881 32.9954 240.344 30.6958 240.337 28.1286C240.33 25.5615 240.855 23.2619 241.91 21.2362C242.964 19.2106 244.424 17.6244 246.295 16.4842C248.16 15.3439 250.243 14.7706 252.539 14.7643C254.629 14.7579 256.507 15.2229 258.172 16.1593C259.837 17.0957 261.184 18.4143 262.219 20.1215L262.186 8.19674C262.186 7.17116 263.042 6.34305 264.11 6.34305C265.179 6.33668 266.041 7.16479 266.041 8.19037ZM257.946 36.8683C259.313 36.0084 260.375 34.8108 261.125 33.282C261.874 31.7468 262.246 30.0142 262.239 28.0713C262.233 26.1284 261.855 24.4022 261.091 22.8925C260.335 21.3827 259.267 20.1979 257.893 19.3443C256.52 18.4907 254.974 18.0703 253.262 18.0703C251.55 18.0767 250.018 18.5099 248.664 19.3634C247.31 20.2234 246.262 21.4082 245.512 22.9243C244.763 24.4404 244.391 26.1667 244.398 28.1095C244.404 30.0524 244.782 31.785 245.546 33.3139C246.302 34.8427 247.364 36.0339 248.717 36.8875C250.071 37.741 251.61 38.1615 253.322 38.1615C255.04 38.1551 256.58 37.7283 257.946 36.8683Z" fill="white"/>
<path d="M252.618 43.6017C249.904 43.6081 247.403 42.9328 245.18 41.5887C242.97 40.251 241.219 38.3719 239.971 35.9895C238.75 33.6644 238.127 31.0208 238.12 28.1288C238.114 25.2368 238.724 22.5932 239.932 20.2745C241.166 17.9049 242.904 16.0257 245.107 14.6816C247.323 13.3248 249.824 12.6368 252.538 12.6305C255.02 12.6241 257.296 13.191 259.299 14.3122C259.538 14.4459 259.764 14.5861 259.989 14.7262L259.969 8.19692C259.963 5.99925 261.821 4.20927 264.11 4.2029C266.399 4.19653 268.263 5.98014 268.27 8.17781L268.356 38.9834C268.363 41.1811 266.505 42.971 264.216 42.9774C262.71 42.9838 261.383 42.2066 260.653 41.0537C260.242 41.3531 259.817 41.627 259.372 41.8818C257.375 43.0156 255.099 43.5953 252.618 43.6017ZM253.275 20.1981C251.994 20.2045 250.886 20.5102 249.897 21.1409C248.882 21.7906 248.106 22.6697 247.522 23.8418C246.918 25.0585 246.613 26.4981 246.62 28.1097C246.626 29.7213 246.938 31.1673 247.549 32.4031C248.133 33.5816 248.915 34.467 249.931 35.104C250.926 35.7283 252.034 36.0341 253.315 36.0277C254.602 36.0213 255.716 35.7156 256.732 35.0786C257.76 34.4352 258.536 33.5497 259.114 32.3713C259.717 31.1355 260.023 29.6895 260.023 28.0715C260.016 26.4599 259.704 25.0266 259.094 23.8099C258.51 22.6506 257.727 21.7715 256.692 21.1281C255.677 20.5039 254.562 20.1981 253.275 20.1981Z" fill="white"/>
<path d="M276.967 6.98315C278.035 6.98315 278.897 7.80489 278.897 8.83047L278.984 39.6361C278.984 40.6616 278.128 41.4897 277.06 41.4897C275.992 41.4897 275.129 40.668 275.129 39.6424L275.043 8.83684C275.036 7.81763 275.899 6.98315 276.967 6.98315Z" fill="white"/>
<path d="M277.067 43.6239C274.778 43.6303 272.913 41.8467 272.907 39.649L272.82 8.84341C272.814 6.64574 274.672 4.85575 276.961 4.84938C279.25 4.84301 281.114 6.62663 281.121 8.8243L281.207 39.6299C281.214 41.8212 279.356 43.6175 277.067 43.6239Z" fill="white"/>
<path d="M101.995 17.221L102.055 39.0384C102.055 40.064 101.199 40.8921 100.131 40.8921C99.0627 40.8921 98.2001 40.0704 98.2001 39.0448V37.8663C96.694 40.529 93.33 41.5036 89.4684 41.51C83.7821 41.5227 79.4826 37.6561 79.4627 31.6619L79.4229 17.2719C79.4229 16.2464 80.2788 15.4183 81.347 15.4183C82.4153 15.4183 83.2778 16.24 83.2778 17.2656L83.3176 31.165C83.3243 33.2353 83.948 34.9297 85.1821 36.242C86.4229 37.5542 88.0153 38.2103 89.9726 38.2039C91.4456 38.1976 92.8058 37.8982 94.0598 37.3058C95.3072 36.707 96.3091 35.9044 97.0589 34.8788C97.8087 33.8596 98.1869 32.7703 98.1802 31.6173L98.1404 17.2337C98.1404 16.2081 98.9963 15.38 100.065 15.38C101.126 15.3737 101.989 16.2018 101.995 17.221Z" fill="white"/>
<path d="M89.4685 43.6505C82.4021 43.6696 77.2599 38.6309 77.24 31.6748L77.2002 17.2848C77.1936 15.0872 79.0514 13.2972 81.3405 13.2908C83.6296 13.2844 85.4941 15.068 85.5007 17.2657L85.5405 31.1652C85.5471 32.7067 85.9652 33.9043 86.8344 34.8216C87.6505 35.6879 88.6457 36.0828 89.9728 36.0828C91.114 36.0828 92.1292 35.8599 93.078 35.4076C94.0002 34.9681 94.7102 34.3948 95.2543 33.6622C95.7386 33.0061 95.9709 32.3436 95.9709 31.6366L95.9311 17.2466C95.9244 15.0489 97.7822 13.259 100.071 13.2526C102.36 13.2462 104.225 15.0298 104.232 17.2275L104.291 39.0449C104.298 41.2426 102.44 43.0326 100.151 43.0389C99.0031 43.0389 97.9614 42.593 97.205 41.8732C95.4865 42.8924 93.0183 43.6441 89.4685 43.6505ZM97.8818 37.2549L99.8259 37.7263L99.8192 34.4585C99.5804 35.0254 99.2619 35.5796 98.8704 36.1147C98.5718 36.516 98.2467 36.8982 97.8818 37.2549Z" fill="white"/>
<path d="M128.741 16.6415C130.267 17.476 131.454 18.6417 132.297 20.1387C133.14 21.6356 133.564 23.3364 133.571 25.2475L133.611 39.6374C133.611 40.663 132.755 41.4911 131.687 41.4911C130.618 41.4911 129.756 40.6694 129.756 39.6438L129.716 25.7443C129.709 23.6741 129.086 21.9796 127.852 20.661C126.611 19.3488 125.018 18.6927 123.061 18.6991C121.588 18.7054 120.228 19.0048 118.974 19.5972C117.726 20.196 116.724 21.005 115.975 22.0242C115.225 23.0434 114.847 24.1327 114.853 25.2857L114.893 39.6756C114.893 40.7012 114.037 41.5293 112.969 41.5293C111.901 41.5293 111.038 40.7076 111.038 39.682L110.979 17.8709C110.979 16.8454 111.834 16.0173 112.903 16.0173C113.971 16.0173 114.833 16.839 114.833 17.8646L114.84 20.1132C115.623 18.7309 116.811 17.597 118.403 16.7243C119.996 15.8453 121.714 15.4057 123.565 15.3994C125.489 15.393 127.215 15.807 128.741 16.6415Z" fill="white"/>
<path d="M131.7 43.6187C129.411 43.6251 127.546 41.8414 127.54 39.6438L127.5 25.7507C127.493 24.2091 127.075 23.0115 126.206 22.0943C125.39 21.2343 124.395 20.833 123.074 20.833C121.933 20.833 120.918 21.0559 119.969 21.5082C119.047 21.9477 118.337 22.5211 117.793 23.2536C117.309 23.9097 117.076 24.5722 117.076 25.2793L117.116 39.6692C117.123 41.8669 115.265 43.6569 112.976 43.6633C110.687 43.6696 108.822 41.886 108.816 39.6884L108.756 17.8709C108.749 15.6732 110.607 13.8833 112.896 13.8769C114.27 13.8705 115.49 14.5139 116.254 15.5013C116.585 15.2719 116.937 15.0617 117.302 14.8579C119.226 13.8004 121.336 13.259 123.565 13.2526C125.868 13.2463 127.978 13.7622 129.842 14.7751C131.727 15.807 133.213 17.2658 134.255 19.1067C135.27 20.9094 135.794 22.967 135.794 25.222L135.834 39.6119C135.84 41.8223 133.982 43.6187 131.7 43.6187ZM113.208 20.2533L113.215 22.451C113.454 21.884 113.772 21.3299 114.163 20.7948C114.23 20.7056 114.296 20.6164 114.363 20.5336L113.208 20.2533Z" fill="white"/>
<path d="M162.314 16.5432C164.185 17.6707 165.658 19.2504 166.726 21.2697C167.795 23.289 168.332 25.5823 168.339 28.1494C168.345 30.7165 167.821 33.0225 166.766 35.0673C165.711 37.1121 164.245 38.7046 162.38 39.8448C160.516 40.9851 158.432 41.5584 156.137 41.5647C154.047 41.5711 152.169 41.1061 150.503 40.1697C148.838 39.2333 147.491 37.9147 146.456 36.2075L146.463 39.1441C146.463 40.1697 145.607 40.9978 144.539 40.9978C143.47 40.9978 142.608 40.1761 142.608 39.1505L142.521 8.3449C142.521 7.31932 143.377 6.49121 144.446 6.49121C145.514 6.49121 146.376 7.31295 146.376 8.33853L146.41 20.2633C147.431 18.5497 148.772 17.2184 150.437 16.2756C152.096 15.3328 153.974 14.8615 156.064 14.8551C158.359 14.8551 160.443 15.4157 162.314 16.5432ZM160.005 36.9656C161.358 36.1056 162.407 34.908 163.157 33.3792C163.906 31.844 164.278 30.1114 164.271 28.1685C164.265 26.2256 163.886 24.4994 163.123 22.9897C162.367 21.48 161.305 20.2951 159.952 19.4415C158.592 18.5879 157.059 18.1675 155.347 18.1675C153.635 18.1739 152.089 18.6071 150.722 19.4606C149.356 20.3206 148.294 21.5054 147.544 23.0215C146.794 24.5376 146.423 26.2639 146.43 28.2067C146.436 30.1496 146.814 31.8823 147.577 33.4111C148.334 34.9399 149.402 36.1311 150.776 36.9847C152.149 37.8383 153.695 38.2587 155.407 38.2587C157.119 38.2587 158.651 37.8255 160.005 36.9656Z" fill="white"/>
<path d="M155.845 43.3351C153.363 43.3415 151.087 42.7746 149.083 41.6534C148.639 41.405 148.208 41.1311 147.796 40.8317C147.073 41.991 145.753 42.7745 144.246 42.7745C141.957 42.7809 140.093 40.9973 140.086 38.7996L140 7.99404C139.993 5.79637 141.851 4.00639 144.14 4.00002C146.429 3.99365 148.294 5.77726 148.301 7.97493L148.32 14.5042C148.546 14.3577 148.778 14.2176 149.01 14.0838C151.008 12.9499 153.277 12.3703 155.758 12.3639C158.472 12.3575 160.974 13.0328 163.196 14.3768C165.406 15.7082 167.157 17.581 168.405 19.9443C169.626 22.2566 170.249 24.8938 170.256 27.7858C170.263 30.6714 169.659 33.3214 168.451 35.6528C167.217 38.0416 165.472 39.9335 163.269 41.2776C161.053 42.6344 158.558 43.3287 155.845 43.3351ZM155.062 19.9379C153.774 19.9443 152.66 20.25 151.645 20.887C150.616 21.5368 149.833 22.4159 149.256 23.5816C148.652 24.7983 148.347 26.2379 148.354 27.8495C148.36 29.4675 148.672 30.9071 149.283 32.1429C149.866 33.3214 150.649 34.2005 151.678 34.8375C152.693 35.4681 153.808 35.7739 155.101 35.7675C156.382 35.7611 157.49 35.4554 158.479 34.8247C159.494 34.1813 160.27 33.2895 160.847 32.1111C161.451 30.8753 161.756 29.4293 161.756 27.8113C161.75 26.1997 161.438 24.7664 160.828 23.5497C160.244 22.384 159.461 21.5049 158.439 20.8616C157.45 20.2373 156.342 19.9315 155.062 19.9379Z" fill="white"/>
<path d="M199.816 17.2154L199.876 39.0328C199.876 40.0584 199.02 40.8865 197.951 40.8865C196.883 40.8865 196.021 40.0648 196.021 39.0392L196.014 36.7906C195.231 38.1729 194.043 39.3068 192.451 40.1794C190.859 41.0585 189.14 41.4981 187.289 41.4981C185.371 41.5044 183.646 41.0904 182.12 40.2495C180.594 39.415 179.406 38.2493 178.564 36.7524C177.721 35.2554 177.296 33.5546 177.29 31.6436L177.25 17.2536C177.25 16.228 178.106 15.3999 179.174 15.3999C180.242 15.3999 181.105 16.2217 181.105 17.2473L181.145 31.1467C181.151 33.217 181.775 34.9114 183.009 36.2236C184.25 37.5359 185.842 38.192 187.8 38.1856C189.273 38.1793 190.633 37.8799 191.887 37.2874C193.134 36.6887 194.136 35.886 194.886 34.8605C195.636 33.8412 196.014 32.752 196.007 31.599L195.968 17.209C195.968 16.1835 196.824 15.3553 197.892 15.3553C198.947 15.3681 199.809 16.1962 199.816 17.2154Z" fill="white"/>
<path d="M187.289 43.6446C184.986 43.651 182.876 43.135 181.012 42.1222C179.128 41.0902 177.641 39.6315 176.6 37.7905C175.585 35.9942 175.067 33.9366 175.06 31.6753L175.021 17.2853C175.014 15.0876 176.872 13.2977 179.161 13.2913C181.45 13.2849 183.314 15.0685 183.321 17.2662L183.361 31.1657C183.367 32.7072 183.785 33.9048 184.655 34.8221C185.471 35.6884 186.466 36.0833 187.793 36.0833C188.934 36.0833 189.949 35.8604 190.898 35.4081C191.821 34.9686 192.53 34.3953 193.075 33.6627C193.559 33.0066 193.791 32.3441 193.791 31.637L193.751 17.2471C193.745 15.0494 195.603 13.2594 197.892 13.2531C200.181 13.2467 202.045 15.0303 202.052 17.228L202.112 39.0454C202.118 41.2431 200.26 43.0331 197.971 43.0394C196.598 43.0458 195.377 42.4024 194.614 41.4151C194.282 41.6444 193.93 41.8546 193.566 42.0585C191.628 43.1031 189.518 43.6382 187.289 43.6446ZM196.485 36.37L197.646 36.6503L197.64 34.4462C197.401 35.0132 197.082 35.5674 196.691 36.1025C196.624 36.198 196.558 36.2872 196.485 36.37Z" fill="white"/>
<path d="M14 44H34C39.5228 44 44 39.5228 44 34C44 28.4772 39.5228 24 34 24M14 44C19.5228 44 24 39.5228 24 34V24M14 44C8.47715 44 4.00001 39.5228 4.00001 34M34 24H24M34 24C39.5228 24 44 19.5228 44 14M24 24H14M24 24V14C24 8.48215 28.4691 4.0081 33.985 4.00001M14 24C8.47715 24 4 19.5229 4 14C4 8.47997 8.4726 4.00456 13.9916 4.00001M14 24C8.47715 24 4.00001 28.4771 4.00001 34M24 4.00001L14 4.00001C13.9972 4.00001 13.9944 4.00001 13.9916 4.00001M24 4.00001L33.985 4.00001M24 4.00001L34 4M24 4.00001L13.9916 4.00001M33.985 4.00001L34.015 4.00001M33.985 4.00001C33.99 4 33.995 4 34 4M34.015 4.00001L34.1562 4.00001M34.015 4.00001C34.01 4 34.005 4 34 4M34.015 4.00001C39.5309 4.00811 44 8.48215 44 14M13.9916 4.00001L13.8437 4.00001M4.00001 33.5312V34M44 14V12.9062" stroke="#2146FF" stroke-width="6.34921" stroke-linecap="round"/>
</svg>
